<?xml version="1.0" encoding="UTF-8"?>
<svg version="1.1" xmlns="http://www.w3.org/2000/svg" width="377" height="366">
<path d="M0 0 C8.69565856 5.68562291 12.67895688 15.97579247 16.58203125 25.25390625 C16.9940831 26.21729919 17.40613495 27.18069214 17.83067322 28.17327881 C19.16541018 31.29990261 20.48929784 34.43097923 21.8125 37.5625 C22.73756218 39.73804173 23.66302263 41.91341416 24.58886719 44.08862305 C30.70107427 58.47188864 36.74807346 72.88288812 42.75 87.3125 C43.11566071 88.19011993 43.48132141 89.06773987 43.85806274 89.97195435 C44.88268877 92.43435595 45.90312502 94.89844372 46.921875 97.36328125 C47.22189926 98.08392761 47.52192352 98.80457397 47.83103943 99.54705811 C49.11220649 102.660875 50.33165361 105.69168535 51 109 C51.66 109 52.32 109 53 109 C53.52400391 107.29650391 53.52400391 107.29650391 54.05859375 105.55859375 C56.62016026 97.89177602 59.90488056 90.49766329 63.0625 83.0625 C63.76559872 81.40126218 64.46855808 79.73996538 65.17138672 78.07861328 C67.0491066 73.64412587 68.93248282 69.21206232 70.81756592 64.78070068 C72.01784928 61.95802429 73.21635869 59.13459983 74.41455078 56.31103516 C76.42324008 51.57912725 78.4368419 46.84933666 80.45407104 42.12106323 C81.22612433 40.31044345 81.99708478 38.49935723 82.76687622 36.68777466 C97.11300622 2.94857947 97.11300622 2.94857947 110.375 -2.5 C118.94478154 -5.19301794 127.91308059 -5.18442436 136 -1 C144.40921218 4.74806908 148.77265595 12.86672105 152.6171875 22.0703125 C152.94652786 22.84308029 153.27586823 23.61584808 153.6151886 24.41203308 C154.70804988 26.9804146 155.79139507 29.55270115 156.875 32.125 C157.66249347 33.97969706 158.45067977 35.83410009 159.23950195 37.68823242 C160.93849392 41.68468253 162.6336202 45.68274041 164.32568359 49.68212891 C168.45294988 59.43633152 172.59963081 69.18227833 176.74728394 78.92782593 C177.70988022 81.19003836 178.67205668 83.45242948 179.63381958 85.71499634 C185.11667161 98.61232568 190.63284821 111.49406811 196.2265625 124.34375 C196.73880875 125.5208403 197.25105499 126.6979306 197.77882385 127.91069031 C200.21719099 133.51058968 202.66070266 139.10816813 205.11206055 144.70239258 C209.71709108 155.23692811 214.20801892 165.80945389 218.5078125 176.47265625 C219.12931938 178.00373772 219.12931938 178.00373772 219.76338196 179.56575012 C229.8173101 204.7501355 231.12900912 230.91397401 220.7265625 256.1484375 C210.73877389 279.03855973 193.26255522 296.7702595 170.25390625 306.703125 C166.8623781 307.98120371 163.49572592 309.04552184 160 310 C158.88109375 310.31582031 157.7621875 310.63164062 156.609375 310.95703125 C133.02872342 316.6444351 107.05917702 313.38902041 86.15820312 300.89941406 C82.29750734 298.44927651 78.63212368 295.77931953 75 293 C74.32582031 292.49855469 73.65164062 291.99710937 72.95703125 291.48046875 C67.4634562 287.1182936 63.31643832 281.48131816 59 276 C58.25105469 275.10410156 57.50210938 274.20820313 56.73046875 273.28515625 C55 271 55 271 55 269 C54.34 269 53.68 269 53 269 C52.83491943 269.5264209 52.66983887 270.0528418 52.49975586 270.59521484 C50.5126076 276.75879941 48.11750645 282.6774802 45.5625 288.625 C44.59493297 290.89187624 43.62749695 293.15880841 42.66015625 295.42578125 C42.38954376 296.0584642 42.11893127 296.69114716 41.84011841 297.34300232 C39.63821522 302.49333568 37.45373419 307.65091694 35.27342224 312.8104248 C33.47171348 317.07328082 31.66678485 321.33477008 29.86154175 325.59613037 C28.95570699 327.73598353 28.05101856 329.87632232 27.14749146 332.01715088 C25.86227391 335.06111979 24.57229069 338.10302839 23.28125 341.14453125 C22.70056007 342.5242939 22.70056007 342.5242939 22.10813904 343.93193054 C21.74309769 344.78946426 21.37805634 345.64699799 21.00195312 346.53051758 C20.68649536 347.27594315 20.3710376 348.02136871 20.04602051 348.78938293 C19.52824036 349.88363838 19.52824036 349.88363838 19 351 C18.59947922 351.90547577 18.19895844 352.81095154 17.78630066 353.74386597 C16 356 16 356 13.05769348 356.60127258 C11.85634262 356.59016953 10.65499176 356.57906647 9.41723633 356.56762695 C8.75355545 356.56835709 8.08987457 356.56908722 7.40608215 356.56983948 C5.21389821 356.56635781 3.0238435 356.52747641 0.83203125 356.48828125 C-0.68824604 356.47895501 -2.20853837 356.471838 -3.72883606 356.46684265 C-7.72905005 356.44775745 -11.72835535 356.39864509 -15.72821045 356.34332275 C-19.81021837 356.29216216 -23.89237322 356.26933553 -27.97460938 356.24414062 C-35.9834898 356.19052646 -43.99163185 356.10519687 -52 356 C-51.34797484 351.78219233 -50.44357728 348.26150193 -48.734375 344.34375 C-48.26370605 343.25570068 -47.79303711 342.16765137 -47.30810547 341.04663086 C-46.79393066 339.87624268 -46.27975586 338.70585449 -45.75 337.5 C-45.20523315 336.24581003 -44.66113946 334.99132748 -44.11767578 333.73657227 C-42.69691616 330.46041018 -41.2686682 327.18757675 -39.83776855 323.91583252 C-37.51002798 318.59269039 -35.19130633 313.26562555 -32.875 307.9375 C-32.61391449 307.33766296 -32.35282898 306.73782593 -32.08383179 306.11981201 C-26.55764959 293.41313016 -21.23014388 280.6249825 -15.89981079 267.83520508 C-10.89050615 255.82267622 -5.80449573 243.85033778 -0.5625 231.9375 C0.00207715 230.65150301 0.56653202 229.36545233 1.13085938 228.0793457 C3.30881632 223.11807471 5.48759852 218.15719612 7.6796875 213.20214844 C9.28102594 209.57892303 10.85989325 205.94612409 12.4375 202.3125 C12.91695068 201.23669678 13.39640137 200.16089355 13.89038086 199.05249023 C14.53052124 197.56664429 14.53052124 197.56664429 15.18359375 196.05078125 C15.56056396 195.19137939 15.93753418 194.33197754 16.32592773 193.4465332 C17.7574804 188.25073848 15.20110487 183.82190499 13.078125 179.12890625 C12.78164566 178.46220917 12.48516632 177.79551208 12.17970276 177.10861206 C11.54050551 175.67257409 10.89903613 174.23754573 10.25552368 172.80343628 C8.54464166 168.99052003 6.84990576 165.17042254 5.15234375 161.3515625 C4.80584274 160.57342697 4.45934174 159.79529144 4.1023407 158.99357605 C0.61915617 151.16451146 -2.79159313 143.30473418 -6.1875 135.4375 C-9.423201 127.94241815 -12.66101993 120.44980301 -16 113 C-20.22438847 120.96571086 -23.67394885 129.20307365 -27.09869385 137.53207397 C-28.76426156 141.58091921 -30.44330666 145.62417535 -32.12109375 149.66796875 C-32.4564917 150.47702164 -32.79188965 151.28607452 -33.13745117 152.11964417 C-37.0985551 161.66511484 -41.17868312 171.15850883 -45.26803589 180.64959717 C-47.91033239 186.78468693 -50.53921163 192.92550533 -53.16796875 199.06640625 C-54.10530087 201.25561743 -55.04263816 203.44482639 -55.97998047 205.6340332 C-57.38142379 208.90724501 -58.78275826 212.1805031 -60.18365479 215.45394897 C-61.50334313 218.5372666 -62.82385945 221.62022851 -64.14453125 224.703125 C-64.52965378 225.60345963 -64.91477631 226.50379425 -65.31156921 227.43141174 C-68.82992565 235.64118863 -72.41953156 243.81607214 -76 252 C-98.77 252 -121.54 252 -145 252 C-144.216166 247.29699601 -143.53480093 244.51161563 -141.62890625 240.3515625 C-141.14188232 239.27567871 -140.6548584 238.19979492 -140.15307617 237.09130859 C-139.62818604 235.94742676 -139.1032959 234.80354492 -138.5625 233.625 C-137.46388906 231.19368834 -136.36701905 228.76169283 -135.2734375 226.328125 C-134.99696884 225.71403778 -134.72050018 225.09995056 -134.43565369 224.46725464 C-131.74839678 218.47942405 -129.19781562 212.43873267 -126.6875 206.375 C-126.27935059 205.38943115 -125.87120117 204.4038623 -125.45068359 203.38842773 C-123.62507136 198.96694191 -121.81131586 194.54063914 -120 190.11328125 C-119.69102783 189.35934082 -119.38205566 188.60540039 -119.0637207 187.82861328 C-118.51300735 186.48290248 -117.96435865 185.136343 -117.41870117 183.78857422 C-115.95216331 180.19543723 -114.39244964 176.66033317 -112.765625 173.13671875 C-108.79159775 164.4505773 -105.22594957 155.58738026 -101.58666992 146.75732422 C-97.98797149 138.03326162 -94.34093573 129.36759652 -90.29077148 120.84130859 C-88.41353715 116.70904962 -86.86297283 112.46613028 -85.26733398 108.21899414 C-84.03090435 105.07849622 -82.66493161 102.0469003 -81.22265625 98.99609375 C-78.22652231 92.55829389 -75.45222717 86.04506725 -72.73474121 79.48550415 C-66.46943578 64.37312889 -60.0248477 49.34222963 -53.46191406 34.35693359 C-52.10047501 31.23071666 -50.76191362 28.09578115 -49.4296875 24.95703125 C-48.66200656 23.17945064 -47.89381765 21.40208927 -47.125 19.625 C-46.8043457 18.85325439 -46.48369141 18.08150879 -46.15332031 17.28637695 C-41.80943457 7.37979349 -34.86903405 1.27840261 -25.25 -3.3125 C-16.18725828 -5.22961844 -8.1571496 -4.42941994 0 0 Z M121 112 C116.58489347 120.52259118 112.71258009 129.18943131 109.0625 138.0625 C107.93906743 140.78244485 106.81242836 143.50104282 105.68359375 146.21875 C105.39170166 146.92193863 105.09980957 147.62512726 104.79907227 148.34962463 C102.52810278 153.79452208 100.16922288 159.19756513 97.78515625 164.59375 C96.73995111 166.97425562 95.69561849 169.35514269 94.65133667 171.73605347 C93.97055983 173.27920296 93.28450944 174.82003737 92.5930481 176.35842896 C91.62394827 178.51577976 90.67365691 180.68057393 89.7265625 182.84765625 C89.4345546 183.48388916 89.14254669 184.12012207 88.84169006 184.77563477 C86.71819819 189.70777576 86.83718502 192.85807706 88.67993164 197.83717346 C89.53703962 199.95037176 90.45166116 202.02951782 91.38671875 204.109375 C91.72621048 204.8762262 92.06570221 205.64307739 92.41548157 206.4331665 C93.13417876 208.05168701 93.85635315 209.66866743 94.58178711 211.28417969 C95.67592052 213.72417692 96.75570072 216.17015183 97.83398438 218.6171875 C105.90361255 237.79423276 105.90361255 237.79423276 121.6875 250.375 C130.34701483 253.49767353 138.94352828 252.87052801 147.39453125 249.3828125 C155.48134684 245.0908594 161.24679728 238.77814857 164 230 C165.95283771 219.25292624 163.99711155 210.77934704 159.71875 200.98046875 C159.39296463 200.22033981 159.06717926 199.46021088 158.73152161 198.67704773 C158.02734432 197.03560154 157.32049734 195.39529854 156.61123657 193.75604248 C154.69108977 189.31776287 152.790564 184.87107161 150.88671875 180.42578125 C150.48905807 179.49886475 150.0913974 178.57194824 149.6816864 177.61694336 C145.15898343 167.0640641 140.73396413 156.47060054 136.3125 145.875 C131.59136516 134.56149624 126.85816264 123.25549909 122 112 C121.67 112 121.34 112 121 112 Z " fill="#010101" transform="translate(147,6)"/>
<path d="M0 0 C0.66 0.33 1.32 0.66 2 1 C1.360625 1.70125 0.72125 2.4025 0.0625 3.125 C-2.16386102 6.22841233 -2.65080943 8.24620139 -3 12 C-4.32 12 -5.64 12 -7 12 C-7.33 12.66 -7.66 13.32 -8 14 C-8.66 14 -9.32 14 -10 14 C-8.72130795 7.60653976 -4.61738504 4.23081327 0 0 Z " fill="#161515" transform="translate(113,7)"/>
<path d="M0 0 C0.66 0.99 1.32 1.98 2 3 C1.34 3 0.68 3 0 3 C0 3.66 0 4.32 0 5 C0.66 5.33 1.32 5.66 2 6 C1.2575 6.226875 0.515 6.45375 -0.25 6.6875 C-3.53407705 8.25490041 -4.83870845 10.11827794 -7 13 C-7.99 13.66 -8.98 14.32 -10 15 C-10.33 14.01 -10.66 13.02 -11 12 C-10.45730469 11.55269531 -9.91460937 11.10539063 -9.35546875 10.64453125 C-5.51120516 7.39595535 -2.23667322 4.61313852 0 0 Z " fill="#222021" transform="translate(308,241)"/>
<path d="M0 0 C0.66 0.33 1.32 0.66 2 1 C1.8125 3.375 1.8125 3.375 1 6 C-1.375 7.1875 -1.375 7.1875 -4 8 C-4.99 8.66 -5.98 9.32 -7 10 C-5.6062718 5.56541027 -3.39417765 3.12621626 0 0 Z " fill="#171316" transform="translate(248,9)"/>
<path d="M0 0 C0.77321882 2.98241547 1.41196203 5.97580475 2 9 C0.02 9.99 -1.96 10.98 -4 12 C-2.66666667 8 -1.33333333 4 0 0 Z " fill="#161415" transform="translate(75,83)"/>
<path d="M0 0 C0.33 0.66 0.66 1.32 1 2 C1.66 2.33 2.32 2.66 3 3 C2.25 5.4375 2.25 5.4375 1 8 C-0.32 8.33 -1.64 8.66 -3 9 C-2.01 6.03 -1.02 3.06 0 0 Z " fill="#1E1B1C" transform="translate(13,229)"/>
<path d="M0 0 C2.91517292 1.07401108 4.77810176 1.77810176 7 4 C6.34 4 5.68 4 5 4 C4.67 5.65 4.34 7.3 4 9 C1.3144406 6.3144406 0.93950026 3.62378672 0 0 Z " fill="#100F11" transform="translate(287,161)"/>
<path d="M0 0 C2.475 0.495 2.475 0.495 5 1 C5 2.65 5 4.3 5 6 C4.01 6.33 3.02 6.66 2 7 C0.5393715 4.35261084 0 3.10551666 0 0 Z " fill="#0C0A0E" transform="translate(144,146)"/>
<path d="M0 0 C1.65 0.33 3.3 0.66 5 1 C2.63707344 3.52588702 1.33537489 4.88820837 -2 6 C-2.66 5.01 -3.32 4.02 -4 3 C-2.68 2.67 -1.36 2.34 0 2 C0 1.34 0 0.68 0 0 Z " fill="#22191A" transform="translate(335,297)"/>
<path d="M0 0 C0.33 0.66 0.66 1.32 1 2 C1.66 2.33 2.32 2.66 3 3 C1.71034824 4.37562854 0.37310707 5.70766393 -1 7 C-1.66 7 -2.32 7 -3 7 C-2.625 4.0625 -2.625 4.0625 -2 1 C-1.34 0.67 -0.68 0.34 0 0 Z " fill="#281F23" transform="translate(347,287)"/>
<path d="M0 0 C0.33 0.99 0.66 1.98 1 3 C1.99 2.67 2.98 2.34 4 2 C4 2.66 4 3.32 4 4 C2.1875 5.6875 2.1875 5.6875 0 7 C-0.99 6.67 -1.98 6.34 -3 6 C-2.67 4.68 -2.34 3.36 -2 2 C-1.34 2 -0.68 2 0 2 C0 1.34 0 0.68 0 0 Z " fill="#0E0B0B" transform="translate(200,113)"/>
<path d="M0 0 C1.32 0.66 2.64 1.32 4 2 C3.01 3.485 3.01 3.485 2 5 C-0.475 4.01 -0.475 4.01 -3 3 C-2.01 2.01 -1.02 1.02 0 0 Z " fill="#141111" transform="translate(237,304)"/>
<path d="M0 0 C3 3.75 3 3.75 3 6 C1.02 6.99 1.02 6.99 -1 8 C-1.93065133 5.39417629 -2.14917407 4.35801776 -1.0625 1.75 C-0.711875 1.1725 -0.36125 0.595 0 0 Z " fill="#0D0D0D" transform="translate(163,33)"/>
<path d="M0 0 C1.9451 2.91765 2.45276317 4.62537285 3 8 C2.01 8 1.02 8 0 8 C-0.79953138 4.71303767 -1.09658936 3.28976808 0 0 Z " fill="#161417" transform="translate(178,67)"/>
<path d="M0 0 C1.37562854 1.28965176 2.70766393 2.62689293 4 4 C4 4.66 4 5.32 4 6 C2.35 6 0.7 6 -1 6 C-0.67 4.02 -0.34 2.04 0 0 Z " fill="#1B1A1B" transform="translate(3,252)"/>
</svg>
